<svg xmlns="http://www.w3.org/2000/svg" width="16" height="16" viewBox="0 0 16 16">
  <g fill="none" fill-rule="evenodd">
    <rect width="16" height="16"/>
    <path fill="#00ABC9" d="M2.50028,3.33870327 C2.50028,2.14984968 3.35482307,1.66016769 4.39877967,2.25023012 L4.39877967,2.25023012 L13.0009472,6.94628908 C14.2247157,7.67077401 14.036175,8.40486055 12.9826168,8.97659264 L12.9826168,8.97659264 L7.23649114,12.0901321 C7.04882335,12.1878939 6.77735972,12.1739279 6.64555584,12.1267928 C6.31910118,12.0107006 6.01883273,11.7628046 6.01883273,11.4171467 L6.01883273,11.4171467 L6.01883273,8.23465024 C6.01883273,7.88811949 6.29902509,7.60792713 6.64555584,7.60792713 C6.99121371,7.60792713 7.27140607,7.88811949 7.27140607,8.23465024 L7.27140607,8.23465024 L7.27140607,10.4805535 L10.9374744,8.57245225 C11.5231725,8.25472633 11.5275368,7.72576504 10.9479489,7.39756463 L10.9479489,7.39756463 L5.01328255,4.0073243 C4.43369461,3.67999677 3.95885147,3.9514604 3.95885147,4.61222558 L3.95885147,4.61222558 L3.95885147,11.2006741 C3.95885147,11.8614393 4.33418704,12.1809109 4.9198851,11.863185 C5.31791538,11.7540758 5.66619187,11.8788967 5.76308082,12.2830371 C5.86782562,12.7159823 5.49074431,13.0380726 5.33100848,13.1436903 L5.33100848,13.1436903 L4.34815301,13.6909819 C3.29372193,14.2644598 2.50028,14.1160713 2.50028,12.5937801 L2.50028,12.5937801 Z M6.67636827,5.88950124 C7.03948361,5.88950124 7.33451482,6.18278671 7.33451482,6.54677492 C7.33451482,6.90989026 7.03948361,7.2040486 6.67636827,7.2040486 C6.31325293,7.2040486 6.01909459,6.90989026 6.01909459,6.54677492 C6.01909459,6.18278671 6.31325293,5.88950124 6.67636827,5.88950124 Z"/>
  </g>
</svg>
